<?xml version="1.0" encoding="UTF-8" standalone="no"?>
<!-- Generator: Adobe Illustrator 24.3.0, SVG Export Plug-In . SVG Version: 6.00 Build 0)  -->
<svg version="1.1" id="Calque_1" x="0px" y="0px" viewBox="0 0 446.2 184.5" style="enable-background:new 0 0 446.2 184.5;" xml:space="preserve" sodipodi:docname="logo 42 Mulhouse white.svg" inkscape:version="1.1.1 (c3084ef, 2021-09-22)" xmlns:inkscape="http://www.inkscape.org/namespaces/inkscape" xmlns:sodipodi="http://sodipodi.sourceforge.net/DTD/sodipodi-0.dtd" xmlns:xlink="http://www.w3.org/1999/xlink" xmlns="http://www.w3.org/2000/svg" xmlns:svg="http://www.w3.org/2000/svg"><defs id="defs1016"><linearGradient inkscape:collect="always" id="linearGradient1115"><stop style="stop-color:#000000;stop-opacity:1;" offset="0" id="stop1111"/><stop style="stop-color:#000000;stop-opacity:0;" offset="1" id="stop1113"/></linearGradient><linearGradient inkscape:collect="always" xlink:href="#linearGradient1115" id="linearGradient1117" x1="253.6" y1="130.6" x2="431.9" y2="130.6" gradientUnits="userSpaceOnUse"/></defs><sodipodi:namedview id="namedview1014" pagecolor="#ffffff" bordercolor="#666666" borderopacity="1.0" inkscape:pageshadow="2" inkscape:pageopacity="0.0" inkscape:pagecheckerboard="0" showgrid="false" inkscape:zoom="2.5257731" inkscape:cx="223.10001" inkscape:cy="92.248982" inkscape:window-width="1440" inkscape:window-height="900" inkscape:window-x="0" inkscape:window-y="0" inkscape:window-maximized="0" inkscape:current-layer="Calque_1"/>
<style type="text/css" id="style943">
	.st0{fill:#020303;}
	.st1{fill:#1E1E1C;}
	.st2{fill:#020203;}
	.st3{clip-path:url(#SVGID_2_);fill:#020203;}
</style>
<polygon class="st0" points="81.6,108.4 81.6,143.9 117.1,143.9 117.1,79.7 46.2,79.7 117.1,8.9 81.6,8.9 10.8,79.7 10.8,108.4 " id="polygon945" style="display:inline;stroke:#ffffff;fill-opacity:1;fill:#ffffff"/>
<polygon class="st0" points="167.7,8.9 132.3,8.9 132.3,44.3 " id="polygon947" style="display:inline;stroke:#ffffff;fill-opacity:1;fill:#ffffff"/>
<polygon class="st0" points="132.3,79.7 132.3,115.2 167.7,115.2 167.7,79.7 203.2,44.3 203.2,8.9 167.7,8.9 167.7,44.3 " id="polygon949" style="display:inline;stroke:#ffffff;fill-opacity:1;fill:#ffffff"/>
<polygon class="st0" points="167.7,115.2 203.2,115.2 203.2,79.7 " id="polygon951" style="display:inline;stroke:#ffffff;fill-opacity:1;fill:#ffffff"/>
<rect x="237.3" y="79.800003" class="st1" width="2.8" height="35.200001" id="rect953" style="display:inline;stroke:#ffffff;fill-opacity:1;fill:#ffffff"/>
<polygon class="st2" points="272.4,88.2 276.1,88.2 276.7,106.8 272.4,106.8 272.3,95.7 266.4,106.8 264.7,106.8 261.5,95.7 258.6,106.8 254.3,106.8 259.6,88.2 263.2,88.2 266.4,99.3 " id="polygon955" style="display:inline;stroke:#ffffff;fill-opacity:1;fill:#ffffff"/>
<g id="g1011" style="display:inline;stroke:#ffffff;fill-opacity:1;fill:#ffffff">
	<defs id="defs958" style="fill-opacity:1;fill:url(#linearGradient1117)">
		<rect id="SVGID_1_" width="446.20001" height="184.5" x="0" y="0" style="fill-opacity:1;fill:url(#linearGradient1117)"/>
	</defs>
	<clipPath id="SVGID_2_" style="fill-opacity:1;fill:url(#linearGradient1117)">
		<use xlink:href="#SVGID_1_" style="overflow:visible;fill-opacity:1;fill:url(#linearGradient1117)" id="use960" x="0" y="0" width="100%" height="100%"/>
	</clipPath>
	<path class="st3" d="m 286.4,88.2 -1.2,10.2 c -0.1,0.6 -0.1,0.8 -0.1,1.6 0,0.8 0.1,1.7 0.8,2.4 0.5,0.5 1.3,0.8 2.5,0.8 1.4,0 2.3,-0.4 2.7,-0.9 0.9,-0.9 1.1,-2.5 1.3,-3.6 l 1.3,-10.6 H 298 L 296.6,99 c -0.3,2.2 -0.5,4.5 -2.2,6.2 -1.9,1.9 -4.6,2 -6.1,2 -1.8,0 -4.2,-0.2 -5.9,-1.9 -1.2,-1.1 -1.6,-2.6 -1.6,-4.3 0,-0.8 0.1,-2.2 0.2,-2.9 l 1.2,-9.9 z" clip-path="url(#SVGID_2_)" id="path963" style="stroke:#ffffff;fill-opacity:1;fill:#ffffff"/>
	<polygon class="st3" points="306.3,88.2 304.5,103.2 310.3,103.2 309.9,106.8 299.7,106.8 302,88.2 " clip-path="url(#SVGID_2_)" id="polygon965" style="stroke:#ffffff;fill-opacity:1;fill:#ffffff"/>
	<polygon class="st3" points="325,98.8 317.6,98.8 316.6,106.8 312.3,106.8 314.6,88.2 318.9,88.2 318,95.2 325.4,95.2 326.3,88.2 330.6,88.2 328.3,106.8 324,106.8 " clip-path="url(#SVGID_2_)" id="polygon967" style="stroke:#ffffff;fill-opacity:1;fill:#ffffff"/>
	<path class="st3" d="m 350.4,90.2 c 1.6,1.5 2.6,3.9 2.6,6.6 0,2.7 -0.9,5.5 -2.9,7.6 -2.4,2.4 -5.3,2.9 -7.7,2.9 -2.3,0 -4.9,-0.4 -7.1,-2.7 -1.3,-1.3 -2.6,-3.5 -2.6,-6.5 0,-3.3 1.3,-5.8 3.1,-7.5 2.4,-2.3 5.3,-2.8 7.7,-2.8 3.5,0 5.7,1.2 6.9,2.4 m -11.6,3.3 c -1.1,1.1 -1.7,2.7 -1.7,4.3 0,1.7 0.6,3 1.5,3.9 1.3,1.3 2.8,1.6 4.1,1.6 1.3,0 2.8,-0.2 4.2,-1.6 1,-1 1.7,-2.7 1.7,-4.6 0,-1.2 -0.3,-2.7 -1.5,-3.9 -1.2,-1.2 -2.7,-1.5 -3.9,-1.5 -1.8,0 -3.3,0.6 -4.4,1.8" clip-path="url(#SVGID_2_)" id="path969" style="stroke:#ffffff;fill-opacity:1;fill:#ffffff"/>
	<path class="st3" d="m 361.7,88.2 -1.2,10.2 c -0.1,0.6 -0.1,0.8 -0.1,1.6 0,0.8 0.1,1.7 0.8,2.4 0.5,0.5 1.3,0.8 2.5,0.8 1.4,0 2.3,-0.4 2.7,-0.9 0.9,-0.9 1.1,-2.5 1.3,-3.6 L 369,88.1 h 4.3 L 371.8,99 c -0.3,2.2 -0.5,4.5 -2.2,6.2 -1.9,1.9 -4.6,2 -6.1,2 -1.8,0 -4.2,-0.2 -5.9,-1.9 -1.2,-1.1 -1.6,-2.6 -1.6,-4.3 0,-0.8 0.1,-2.2 0.2,-2.9 l 1.2,-9.9 z" clip-path="url(#SVGID_2_)" id="path971" style="stroke:#ffffff;fill-opacity:1;fill:#ffffff"/>
	<path class="st3" d="m 386.3,92.7 c -1.2,-1.1 -2.3,-1.3 -3.1,-1.3 -0.5,0 -1.3,0.1 -1.8,0.5 -0.4,0.3 -0.6,0.8 -0.6,1.3 0,0.6 0.3,1 0.6,1.3 0.4,0.3 0.9,0.6 1.8,1 l 1.1,0.5 c 0.9,0.4 1.7,0.9 2.5,1.8 0.7,0.8 1,1.7 1,2.9 0,2 -0.8,3.7 -1.9,4.8 -1.5,1.5 -3.4,1.8 -5.3,1.8 -1.4,0 -2.5,-0.2 -3.7,-0.8 -0.9,-0.5 -1.8,-1.3 -2.5,-2 l 2.4,-3.1 c 0.4,0.5 1,1.1 1.6,1.5 0.6,0.4 1.4,0.6 2.2,0.6 0.6,0 1.5,-0.2 2.1,-0.6 0.5,-0.4 0.8,-1 0.8,-1.7 0,-0.7 -0.3,-1.1 -0.5,-1.3 -0.1,-0.1 -0.5,-0.4 -1.5,-0.8 l -1.1,-0.4 c -0.3,-0.1 -1.7,-0.7 -2.6,-1.7 -0.9,-0.9 -1.2,-2 -1.2,-3.2 0,-1.9 0.8,-3.3 1.7,-4.2 1.5,-1.5 3.4,-1.8 5,-1.8 1.6,0 3.4,0.3 5.4,1.8 z" clip-path="url(#SVGID_2_)" id="path973" style="stroke:#ffffff;fill-opacity:1;fill:#ffffff"/>
	<polygon class="st3" points="395,103.2 401.2,103.2 400.7,106.8 390.3,106.8 392.6,88.2 402.9,88.2 402.5,91.8 396.4,91.8 395.9,95.4 401.8,95.4 401.4,99.1 395.5,99.1 " clip-path="url(#SVGID_2_)" id="polygon975" style="stroke:#ffffff;fill-opacity:1;fill:#ffffff"/>
	<path class="st3" d="m 264,125.6 h 9.6 c 0,3.7 -0.8,6.3 -3,8.4 -2,1.8 -4.2,2.4 -6.6,2.4 -3.4,0 -5.7,-1.2 -7.2,-2.8 -1.4,-1.4 -2.7,-3.7 -2.7,-6.7 0,-3 1.2,-5.4 2.8,-7 1.5,-1.5 3.9,-2.7 7.2,-2.7 1.7,0 3.6,0.4 5,1.3 1.5,0.9 2.7,2.4 3.3,3.8 l -4.6,1.9 c -0.3,-0.9 -0.9,-1.5 -1.3,-1.9 -0.8,-0.7 -1.7,-0.9 -2.6,-0.9 -1.1,0 -2.3,0.4 -3.2,1.3 -1.1,1.1 -1.6,2.8 -1.6,4.3 0,1.7 0.6,3.1 1.5,4 0.9,1 2,1.4 3.4,1.4 0.8,0 1.8,-0.1 2.7,-0.9 0.4,-0.4 1,-1 1.1,-2.1 h -4 v -3.8 z" clip-path="url(#SVGID_2_)" id="path977" style="stroke:#ffffff;fill-opacity:1;fill:#ffffff"/>
	<path class="st3" d="m 276.3,123.7 h 4.5 v 2 c 0.4,-0.8 1.1,-1.4 1.8,-1.7 0.7,-0.4 1.5,-0.5 2.3,-0.5 0.1,0 0.3,0 0.9,0.1 v 4.2 c -0.2,-0.1 -0.8,-0.4 -1.9,-0.4 -0.6,0 -1.4,0.1 -2,0.7 -1,0.9 -1,2.2 -1,2.9 v 5.3 h -4.5 v -12.6 z" clip-path="url(#SVGID_2_)" id="path979" style="stroke:#ffffff;fill-opacity:1;fill:#ffffff"/>
	<path class="st3" d="m 297.4,123.7 h 4.5 v 12.5 h -4.5 v -1.4 c -1,1.4 -2.7,1.8 -3.9,1.8 -1.3,0 -3,-0.4 -4.5,-2 -1.2,-1.3 -1.8,-2.7 -1.8,-4.6 0,-2.4 0.9,-4 1.9,-5 1.1,-1.1 2.7,-1.8 4.5,-1.8 2,0 3.2,1 3.8,1.6 z m -4.7,4.2 c -0.6,0.6 -0.9,1.4 -0.9,2 0,0.7 0.3,1.5 0.9,2 0.5,0.4 1.3,0.8 2,0.8 0.7,0 1.5,-0.3 2,-0.9 0.4,-0.4 0.8,-1 0.8,-2 0,-0.6 -0.2,-1.4 -0.9,-2 -0.4,-0.4 -1.1,-0.8 -2,-0.8 -0.5,0.1 -1.2,0.3 -1.9,0.9" clip-path="url(#SVGID_2_)" id="path981" style="stroke:#ffffff;fill-opacity:1;fill:#ffffff"/>
	<path class="st3" d="m 305,123.7 h 4.5 v 1.6 c 1.2,-1.6 2.9,-1.8 4,-1.8 1.3,0 2.7,0.3 3.7,1.3 1.1,1.1 1.2,2.1 1.2,3.5 v 7.9 h -4.5 v -6.3 c 0,-0.7 0,-1.8 -0.6,-2.4 -0.4,-0.4 -1,-0.5 -1.4,-0.5 -0.7,0 -1.3,0.3 -1.7,0.6 -0.4,0.4 -0.7,1.2 -0.7,2 v 6.7 H 305 Z" clip-path="url(#SVGID_2_)" id="path983" style="stroke:#ffffff;fill-opacity:1;fill:#ffffff"/>
	<path class="st3" d="M 335.5,136.2 H 331 v -1.4 c -1.3,1.6 -2.9,1.8 -3.8,1.8 -1.8,0 -3.2,-0.6 -4.4,-1.7 -1.3,-1.2 -2,-3 -2,-5 0,-2.1 0.9,-3.9 2,-5 1.2,-1.2 2.9,-1.7 4.4,-1.7 1.7,0 2.9,0.8 3.7,1.6 v -9.1 h 4.5 v 20.5 z m -5.3,-4.1 c 0.6,-0.5 1,-1.4 1,-2.1 0,-0.7 -0.4,-1.5 -0.8,-2 -0.5,-0.5 -1.2,-0.8 -2,-0.8 -1,0 -1.6,0.4 -2,0.8 -0.5,0.5 -0.9,1.3 -0.9,2.1 0,0.6 0.3,1.4 0.9,2 0.6,0.6 1.3,0.8 2,0.8 0.6,-0.1 1.4,-0.4 1.8,-0.8" clip-path="url(#SVGID_2_)" id="path985" style="stroke:#ffffff;fill-opacity:1;fill:#ffffff"/>
	<polygon class="st3" points="350.4,132.1 356.1,132.1 356.1,136.2 345.5,136.2 345.5,117.6 356.1,117.6 356.1,121.7 350.4,121.7 350.4,124.8 355.8,124.8 355.8,128.9 350.4,128.9 " clip-path="url(#SVGID_2_)" id="polygon987" style="stroke:#ffffff;fill-opacity:1;fill:#ffffff"/>
	<path class="st3" d="m 359.6,132.1 c 0.5,0.4 1.2,0.7 1.8,0.9 0.6,0.2 1.3,0.3 1.7,0.3 0.3,0 0.9,-0.1 1.1,-0.3 0.2,-0.2 0.2,-0.4 0.2,-0.6 0,-0.2 0,-0.4 -0.2,-0.6 -0.3,-0.3 -0.7,-0.3 -1.2,-0.4 l -1.2,-0.3 c -0.6,-0.1 -1.5,-0.4 -2.2,-1.1 -0.5,-0.5 -0.8,-1.2 -0.8,-2.2 0,-1.2 0.5,-2.3 1.2,-3.1 1,-1 2.6,-1.5 4.5,-1.5 1.8,0 3.3,0.5 4,0.8 l -1.5,2.9 c -0.6,-0.3 -1.5,-0.6 -2.4,-0.6 -0.4,0 -0.8,0.1 -1,0.3 -0.3,0.1 -0.4,0.3 -0.4,0.6 0,0.4 0.3,0.6 0.5,0.7 0.4,0.2 0.8,0.2 1.5,0.4 l 0.8,0.2 c 0.6,0.2 1.5,0.6 1.8,1 0.6,0.6 1,1.6 1,2.5 0,1.5 -0.6,2.5 -1.3,3.1 -1.5,1.5 -3.6,1.6 -4.6,1.6 -1.1,0 -2.9,-0.1 -5,-1.5 z" clip-path="url(#SVGID_2_)" id="path989" style="stroke:#ffffff;fill-opacity:1;fill:#ffffff"/>
	<polygon class="st3" points="371.7,123.7 371.7,119.6 376.2,119.6 376.2,123.7 378.7,123.7 378.7,127.4 376.2,127.4 376.2,136.2 371.7,136.2 371.7,127.4 370.3,127.4 370.3,123.7 " clip-path="url(#SVGID_2_)" id="polygon991" style="stroke:#ffffff;fill-opacity:1;fill:#ffffff"/>
	<polygon class="st3" points="259.9,158.9 259.9,167 255.1,167 255.1,148.3 259.9,148.3 259.9,156 265.8,148.3 271.8,148.3 264.4,157.2 272.5,167 266.2,167 " clip-path="url(#SVGID_2_)" id="polygon993" style="stroke:#ffffff;fill-opacity:1;fill:#ffffff"/>
	<polygon class="st3" points="297.2,167 292.3,167 291,156.3 286.5,167 284.5,167 280.2,156.3 278.6,167 273.8,167 277,148.3 281.8,148.3 285.5,158.3 289.5,148.3 294.4,148.3 " clip-path="url(#SVGID_2_)" id="polygon995" style="stroke:#ffffff;fill-opacity:1;fill:#ffffff"/>
	<path class="st3" d="m 318.2,151.8 c 1.6,2.2 2,4.3 2,5.9 0,2.5 -1,5.1 -2.9,7 -1.8,1.7 -4.2,2.8 -7.4,2.8 -2.5,0 -4.3,-0.7 -5.8,-1.6 l -2.5,2.5 -2.5,-2.4 2.4,-2.4 c -1.1,-1.3 -2,-3.2 -2,-5.8 0,-3 1.3,-5.5 2.9,-7 1.6,-1.5 4.1,-2.8 7.4,-2.8 2.3,0 4.2,0.6 5.8,1.6 l 2.5,-2.5 2.5,2.4 z m -6.1,1.4 c -0.6,-0.3 -1.3,-0.6 -2.2,-0.6 -1.7,0 -2.9,0.6 -3.8,1.5 -0.8,0.8 -1.5,2.1 -1.5,3.7 0,0.9 0.2,1.7 0.6,2.3 z m -4.4,9 c 0.7,0.4 1.4,0.6 2.2,0.6 1.6,0 2.9,-0.6 3.7,-1.5 0.9,-0.9 1.5,-2.1 1.5,-3.6 0,-1 -0.2,-1.7 -0.6,-2.4 z" clip-path="url(#SVGID_2_)" id="path997" style="stroke:#ffffff;fill-opacity:1;fill:#ffffff"/>
	<path class="st3" d="m 343.4,166.5 c -1.9,0.7 -3,0.9 -4.2,0.9 -3.2,0 -5.7,-1.3 -7.2,-2.8 -1.8,-1.8 -2.8,-4.4 -2.8,-6.8 0,-2.7 1.1,-5.2 2.8,-6.9 1.6,-1.7 4.1,-2.9 7.1,-2.9 0.9,0 2.4,0.1 4.4,1 v 5.8 c -1.6,-1.9 -3.4,-2 -4.2,-2 -1.4,0 -2.5,0.4 -3.4,1.2 -1.1,1.1 -1.6,2.5 -1.6,3.8 0,1.3 0.5,2.7 1.5,3.6 0.8,0.8 2.1,1.3 3.5,1.3 0.7,0 2.5,-0.1 4.2,-2 v 5.8 z" clip-path="url(#SVGID_2_)" id="path999" style="stroke:#ffffff;fill-opacity:1;fill:#ffffff"/>
	<path class="st3" d="m 355.7,154.5 h 4.5 V 167 h -4.5 v -1.4 c -1,1.4 -2.7,1.8 -3.9,1.8 -1.3,0 -3,-0.4 -4.5,-2 -1.2,-1.3 -1.8,-2.7 -1.8,-4.6 0,-2.4 0.9,-4 1.9,-5 1.1,-1.1 2.7,-1.8 4.5,-1.8 2,0 3.2,1 3.8,1.6 z m -4.7,4.2 c -0.6,0.6 -0.9,1.4 -0.9,2 0,0.7 0.3,1.5 0.9,2 0.5,0.4 1.3,0.8 2,0.8 0.7,0 1.5,-0.3 2,-0.9 0.4,-0.4 0.8,-1 0.8,-2 0,-0.6 -0.2,-1.4 -0.9,-2 -0.4,-0.4 -1.1,-0.8 -2,-0.8 -0.5,0.1 -1.3,0.3 -1.9,0.9" clip-path="url(#SVGID_2_)" id="path1001" style="stroke:#ffffff;fill-opacity:1;fill:#ffffff"/>
	<path class="st3" d="m 363.2,154.5 h 4.5 v 1.5 c 1.1,-1.3 2.5,-1.7 3.8,-1.7 0.9,0 1.7,0.2 2.4,0.6 0.9,0.5 1.4,1.2 1.7,1.8 0.5,-0.9 1.1,-1.4 1.7,-1.7 0.9,-0.5 1.8,-0.6 2.6,-0.6 0.9,0 2.4,0.1 3.5,1.1 1.1,1.1 1.2,2.6 1.2,3.4 v 8.1 h -4.5 v -6.2 c 0,-1.3 -0.1,-2.2 -0.6,-2.7 -0.3,-0.2 -0.6,-0.4 -1.2,-0.4 -0.5,0 -0.9,0.1 -1.3,0.5 -0.8,0.7 -0.8,1.8 -0.8,2.4 v 6.4 h -4.5 v -6.2 c 0,-1.2 -0.1,-2.2 -0.6,-2.7 -0.4,-0.4 -0.9,-0.5 -1.3,-0.5 -0.5,0 -0.9,0.1 -1.2,0.4 -0.8,0.8 -0.8,2 -0.8,2.7 v 6.2 h -4.5 v -12.4 z" clip-path="url(#SVGID_2_)" id="path1003" style="stroke:#ffffff;fill-opacity:1;fill:#ffffff"/>
	<path class="st3" d="m 392.1,173.4 h -4.5 v -18.9 h 4.5 v 1.4 c 0.8,-1 2,-1.8 3.8,-1.8 1.9,0 3.4,0.8 4.5,1.8 1,1 1.9,2.7 1.9,4.8 0,2.1 -0.8,3.8 -2,5 -1.4,1.4 -3,1.7 -4.3,1.7 -0.8,0 -2.5,-0.2 -3.9,-1.6 z m 0.8,-14.7 c -0.6,0.6 -0.9,1.4 -0.9,2.1 0,0.7 0.4,1.5 0.9,2 0.5,0.5 1.3,0.8 2,0.8 0.8,0 1.5,-0.3 2,-0.8 0.5,-0.5 0.9,-1.2 0.9,-2 0,-0.7 -0.3,-1.5 -0.9,-2.1 -0.5,-0.5 -1.2,-0.8 -2,-0.8 -0.8,0 -1.5,0.3 -2,0.8" clip-path="url(#SVGID_2_)" id="path1005" style="stroke:#ffffff;fill-opacity:1;fill:#ffffff"/>
	<path class="st3" d="m 409.4,154.5 v 7 c 0,0.5 0.1,1.3 0.7,1.8 0.4,0.4 1,0.5 1.6,0.5 0.6,0 1.1,-0.1 1.6,-0.5 0.6,-0.6 0.6,-1.2 0.6,-1.8 v -7 h 4.5 v 7.8 c 0,1.1 -0.1,2.2 -1.2,3.4 -1.5,1.6 -3.7,1.8 -5.4,1.8 -1.9,0 -4.2,-0.2 -5.7,-1.8 -1,-1 -1.2,-2.1 -1.2,-3.3 v -7.8 h 4.5 z" clip-path="url(#SVGID_2_)" id="path1007" style="stroke:#ffffff;fill-opacity:1;fill:#ffffff"/>
	<path class="st3" d="m 422.2,162.9 c 0.5,0.4 1.2,0.7 1.8,0.9 0.6,0.2 1.3,0.3 1.7,0.3 0.3,0 0.9,-0.1 1.1,-0.3 0.2,-0.2 0.2,-0.4 0.2,-0.6 0,-0.2 0,-0.4 -0.2,-0.6 -0.3,-0.3 -0.7,-0.3 -1.2,-0.4 l -1.2,-0.3 c -0.6,-0.1 -1.5,-0.4 -2.2,-1.1 -0.5,-0.5 -0.8,-1.2 -0.8,-2.2 0,-1.2 0.5,-2.3 1.2,-3.1 1,-1 2.6,-1.5 4.5,-1.5 1.8,0 3.3,0.5 4,0.8 l -1.5,2.9 c -0.6,-0.3 -1.5,-0.6 -2.4,-0.6 -0.4,0 -0.8,0.1 -1,0.3 -0.3,0.1 -0.4,0.3 -0.4,0.6 0,0.4 0.3,0.6 0.5,0.7 0.4,0.2 0.8,0.2 1.5,0.4 l 0.8,0.2 c 0.6,0.2 1.5,0.6 1.8,1 0.6,0.6 1,1.6 1,2.5 0,1.5 -0.6,2.5 -1.3,3.1 -1.5,1.5 -3.6,1.6 -4.6,1.6 -1.1,0 -2.9,-0.1 -5,-1.5 z" clip-path="url(#SVGID_2_)" id="path1009" style="stroke:#ffffff;fill-opacity:1;fill:#ffffff"/>
</g>
</svg>